<svg xmlns="http://www.w3.org/2000/svg" viewBox="0 0 602.4 205.5" role="img" aria-label="Autotrasporti Bizzotto">
<title>Autotrasporti Bizzotto</title>
<path fill="#fff" fill-rule="evenodd" transform="translate(14.0,14.0)" d="M39 27h38c22 0 35 11 35 28 0 10-5 18-14 23 12 5 19 14 19 27 0 20-15 32-39 32H39V27Zm22 19v23h15c9 0 14-4 14-12 0-7-5-11-14-11H61Zm0 41v30h17c11 0 17-5 17-15s-6-15-17-15H61Z"/><rect x="39.0" y="90.5" width="94" height="7" rx="3.5" fill="#F4B223"/><circle cx="138.0" cy="94.0" r="7" fill="#F4B223"/>
<path fill="#fff" d="M195.65625 140.5V58.0H218.015625Q227.015625 58.0 231.1171875 62.3828125Q235.21875 66.765625 235.21875 76.84375V80.453125Q235.21875 86.265625 233.1328125 89.875Q231.046875 93.484375 226.78125 94.609375Q232.359375 96.015625 234.2578125 101.1953125Q236.15625 106.375 236.15625 113.828125Q236.15625 121.84375 234.65625 127.84375Q233.15625 133.84375 229.21875 137.171875Q225.28125 140.5 218.015625 140.5ZM211.78125 89.078125H215.15625Q217.453125 89.078125 218.109375 87.296875Q218.765625 85.515625 218.765625 83.03125V74.734375Q218.765625 70.75 215.25 70.75H211.78125ZM213.421875 125.96875Q219.84375 125.96875 219.84375 119.875V109.5625Q219.84375 106.046875 218.7890625 104.0078125Q217.734375 101.96875 214.828125 101.96875H211.78125V125.875Q212.8125 125.96875 213.421875 125.96875Z M244.84375 140.5V58.0H260.78125V140.5Z M269.1875 140.5V125.5L288.078125 73.1875H271.015625V58.0H305.46875V72.4375L286.25 125.3125H304.671875V140.5Z M312.5625 140.5V125.5L331.453125 73.1875H314.390625V58.0H348.84375V72.4375L329.625 125.3125H348.046875V140.5Z M377.78125 141.25Q367.890625 141.25 362.6640625 135.2734375Q357.4375 129.296875 357.4375 118.0V78.8125Q357.4375 68.21875 362.6171875 62.734375Q367.796875 57.25 377.78125 57.25Q387.765625 57.25 392.9453125 62.734375Q398.125 68.21875 398.125 78.8125V118.0Q398.125 129.296875 392.8984375 135.2734375Q387.671875 141.25 377.78125 141.25ZM377.921875 126.0625Q381.671875 126.0625 381.671875 118.796875V78.53125Q381.671875 72.4375 378.015625 72.4375Q373.890625 72.4375 373.890625 78.671875V118.890625Q373.890625 122.734375 374.828125 124.3984375Q375.765625 126.0625 377.921875 126.0625Z M415.859375 140.5V73.84375H406.0625V58.0H442.15625V73.84375H432.359375V140.5Z M457.828125 140.5V73.84375H448.03125V58.0H484.125V73.84375H474.328125V140.5Z M512.40625 141.25Q502.515625 141.25 497.2890625 135.2734375Q492.0625 129.296875 492.0625 118.0V78.8125Q492.0625 68.21875 497.2421875 62.734375Q502.421875 57.25 512.40625 57.25Q522.390625 57.25 527.5703125 62.734375Q532.75 68.21875 532.75 78.8125V118.0Q532.75 129.296875 527.5234375 135.2734375Q522.296875 141.25 512.40625 141.25ZM512.546875 126.0625Q516.296875 126.0625 516.296875 118.796875V78.53125Q516.296875 72.4375 512.640625 72.4375Q508.515625 72.4375 508.515625 78.671875V118.890625Q508.515625 122.734375 509.453125 124.3984375Q510.390625 126.0625 512.546875 126.0625Z"/>
<rect x="192.0" y="169.9" width="30.0" height="6.0" rx="3.0" fill="#F4B223"/>
<path fill="#fff" d="M236.3955078125 184.5 238.63671875 161.296875H246.50732421875L248.708984375 184.5H244.31884765625L243.9892578125 180.755859375H241.1943359375L240.904296875 184.5ZM241.52392578125 177.05126953125H243.63330078125L242.6181640625 165.251953125H242.4072265625Z M271.99853515625 184.7109375Q269.09814453125 184.7109375 267.72705078125 183.082763671875Q266.35595703125 181.45458984375 266.35595703125 178.29052734375V161.296875H270.86474609375V178.10595703125Q270.86474609375 178.68603515625 270.9306640625 179.219970703125Q270.99658203125 179.75390625 271.23388671875 180.0966796875Q271.47119140625 180.439453125 271.99853515625 180.439453125Q272.5390625 180.439453125 272.7763671875 180.103271484375Q273.013671875 179.76708984375 273.072998046875 179.2265625Q273.13232421875 178.68603515625 273.13232421875 178.10595703125V161.296875H277.64111328125V178.29052734375Q277.64111328125 181.45458984375 276.27001953125 183.082763671875Q274.89892578125 184.7109375 271.99853515625 184.7109375Z M297.91162109375 184.5V165.7529296875H295.15625V161.296875H305.3076171875V165.7529296875H302.55224609375V184.5Z M328.63671875 184.7109375Q325.85498046875 184.7109375 324.385009765625 183.030029296875Q322.9150390625 181.34912109375 322.9150390625 178.171875V167.150390625Q322.9150390625 164.1708984375 324.371826171875 162.62841796875Q325.82861328125 161.0859375 328.63671875 161.0859375Q331.44482421875 161.0859375 332.901611328125 162.62841796875Q334.3583984375 164.1708984375 334.3583984375 167.150390625V178.171875Q334.3583984375 181.34912109375 332.888427734375 183.030029296875Q331.41845703125 184.7109375 328.63671875 184.7109375ZM328.67626953125 180.439453125Q329.73095703125 180.439453125 329.73095703125 178.39599609375V167.0712890625Q329.73095703125 165.357421875 328.70263671875 165.357421875Q327.54248046875 165.357421875 327.54248046875 167.11083984375V178.42236328125Q327.54248046875 179.50341796875 327.80615234375 179.971435546875Q328.06982421875 180.439453125 328.67626953125 180.439453125Z M354.72119140625 184.5V165.7529296875H351.9658203125V161.296875H362.1171875V165.7529296875H359.36181640625V184.5Z M379.9091796875 184.5V161.296875H387.0283203125Q388.80810546875 161.296875 389.7177734375 162.107666015625Q390.62744140625 162.91845703125 390.937255859375 164.375244140625Q391.2470703125 165.83203125 391.2470703125 167.79638671875Q391.2470703125 169.69482421875 390.765869140625 170.82861328125Q390.28466796875 171.96240234375 388.953125 172.3974609375Q390.04736328125 172.62158203125 390.489013671875 173.485107421875Q390.9306640625 174.3486328125 390.9306640625 175.7197265625V184.5H386.35595703125V175.41650390625Q386.35595703125 174.4013671875 385.940673828125 174.157470703125Q385.525390625 173.91357421875 384.6025390625 173.91357421875V184.5ZM384.62890625 169.892578125H385.74951171875Q386.7119140625 169.892578125 386.7119140625 167.79638671875Q386.7119140625 166.4384765625 386.5009765625 166.0166015625Q386.2900390625 165.5947265625 385.7099609375 165.5947265625H384.62890625Z M408.6435546875 184.5 410.884765625 161.296875H418.75537109375L420.95703125 184.5H416.56689453125L416.2373046875 180.755859375H413.4423828125L413.15234375 184.5ZM413.77197265625 177.05126953125H415.88134765625L414.8662109375 165.251953125H414.6552734375Z M444.3916015625 184.7109375Q441.21435546875 184.7109375 439.810302734375 183.12890625Q438.40625 181.546875 438.40625 178.0927734375V175.8251953125H442.994140625V178.7255859375Q442.994140625 179.52978515625 443.238037109375 179.984619140625Q443.48193359375 180.439453125 444.08837890625 180.439453125Q444.72119140625 180.439453125 444.965087890625 180.0703125Q445.208984375 179.701171875 445.208984375 178.857421875Q445.208984375 177.78955078125 444.998046875 177.071044921875Q444.787109375 176.3525390625 444.266357421875 175.699951171875Q443.74560546875 175.04736328125 442.82275390625 174.17724609375L440.73974609375 172.19970703125Q438.40625 169.998046875 438.40625 167.16357421875Q438.40625 164.197265625 439.783935546875 162.6416015625Q441.16162109375 161.0859375 443.77197265625 161.0859375Q446.96240234375 161.0859375 448.300537109375 162.78662109375Q449.638671875 164.4873046875 449.638671875 167.95458984375H444.9189453125V166.359375Q444.9189453125 165.884765625 444.648681640625 165.62109375Q444.37841796875 165.357421875 443.9169921875 165.357421875Q443.36328125 165.357421875 443.106201171875 165.667236328125Q442.84912109375 165.97705078125 442.84912109375 166.46484375Q442.84912109375 166.95263671875 443.11279296875 167.51953125Q443.37646484375 168.08642578125 444.154296875 168.82470703125L446.83056640625 171.3955078125Q447.634765625 172.16015625 448.30712890625 173.010498046875Q448.9794921875 173.86083984375 449.38818359375 174.988037109375Q449.796875 176.115234375 449.796875 177.73681640625Q449.796875 181.00634765625 448.590576171875 182.858642578125Q447.38427734375 184.7109375 444.3916015625 184.7109375Z M467.83935546875 184.5V161.296875H473.9697265625Q475.89453125 161.296875 477.021728515625 162.15380859375Q478.14892578125 163.0107421875 478.63671875 164.5927734375Q479.12451171875 166.1748046875 479.12451171875 168.36328125Q479.12451171875 170.47265625 478.7158203125 172.034912109375Q478.30712890625 173.59716796875 477.259033203125 174.4541015625Q476.2109375 175.31103515625 474.2861328125 175.31103515625H472.40087890625V184.5ZM472.40087890625 171.14501953125H472.66455078125Q473.95654296875 171.14501953125 474.24658203125 170.419921875Q474.53662109375 169.69482421875 474.53662109375 168.2841796875Q474.53662109375 166.9658203125 474.253173828125 166.247314453125Q473.9697265625 165.52880859375 472.9150390625 165.52880859375H472.40087890625Z M502.625 184.7109375Q499.84326171875 184.7109375 498.373291015625 183.030029296875Q496.9033203125 181.34912109375 496.9033203125 178.171875V167.150390625Q496.9033203125 164.1708984375 498.360107421875 162.62841796875Q499.81689453125 161.0859375 502.625 161.0859375Q505.43310546875 161.0859375 506.889892578125 162.62841796875Q508.3466796875 164.1708984375 508.3466796875 167.150390625V178.171875Q508.3466796875 181.34912109375 506.876708984375 183.030029296875Q505.40673828125 184.7109375 502.625 184.7109375ZM502.66455078125 180.439453125Q503.71923828125 180.439453125 503.71923828125 178.39599609375V167.0712890625Q503.71923828125 165.357421875 502.69091796875 165.357421875Q501.53076171875 165.357421875 501.53076171875 167.11083984375V178.42236328125Q501.53076171875 179.50341796875 501.79443359375 179.971435546875Q502.05810546875 180.439453125 502.66455078125 180.439453125Z M526.71875 184.5V161.296875H533.837890625Q535.61767578125 161.296875 536.52734375 162.107666015625Q537.43701171875 162.91845703125 537.746826171875 164.375244140625Q538.056640625 165.83203125 538.056640625 167.79638671875Q538.056640625 169.69482421875 537.575439453125 170.82861328125Q537.09423828125 171.96240234375 535.7626953125 172.3974609375Q536.85693359375 172.62158203125 537.298583984375 173.485107421875Q537.740234375 174.3486328125 537.740234375 175.7197265625V184.5H533.16552734375V175.41650390625Q533.16552734375 174.4013671875 532.750244140625 174.157470703125Q532.3349609375 173.91357421875 531.412109375 173.91357421875V184.5ZM531.4384765625 169.892578125H532.55908203125Q533.521484375 169.892578125 533.521484375 167.79638671875Q533.521484375 166.4384765625 533.310546875 166.0166015625Q533.099609375 165.5947265625 532.51953125 165.5947265625H531.4384765625Z M558.07666015625 184.5V165.7529296875H555.3212890625V161.296875H565.47265625V165.7529296875H562.71728515625V184.5Z M583.0537109375 184.5V161.296875H587.5361328125V184.5Z"/>
</svg>
